<svg width="32" height="32" viewBox="0 0 1024 1024" fill="none" xmlns="http://www.w3.org/2000/svg">
<rect width="1024" height="1024" rx="512" fill="#B2E6C8"/>
<g clip-path="url(#clip0_56_52)">
<path fill-rule="evenodd" clip-rule="evenodd" d="M474.6 808.885V215.115C327.008 233.519 212.8 359.422 212.8 512C212.8 664.578 327.008 790.481 474.6 808.885ZM802.37 584.443C772.908 702.923 672.828 793.494 549.4 808.885V793.115C549.4 754.365 570.072 718.56 603.63 699.185L802.37 584.443ZM810.625 493.305L549.4 644.124V617.758C549.4 585.69 566.508 556.058 594.28 540.024L797.623 422.624C804.666 445.155 809.117 468.832 810.625 493.305ZM766.327 354.321L549.4 479.564V453.198C549.4 421.13 566.508 391.498 594.28 375.464L723.811 300.679C739.934 316.839 754.219 334.833 766.327 354.321ZM549.4 215.115C588.963 220.048 626.128 232.706 659.337 251.532L549.4 315.004V215.115ZM886 512C886 718.555 718.555 886 512 886C305.446 886 138 718.555 138 512C138 305.446 305.446 138 512 138C718.555 138 886 305.446 886 512Z" fill="black"/>
</g>
<defs>
<clipPath id="clip0_56_52">
<rect width="748" height="748" fill="white" transform="translate(138 138)"/>
</clipPath>
</defs>
</svg>
